<?xml version="1.0" encoding="UTF-8" standalone="no"?>
<svg
   version="1.0"
   width="286.11267pt"
   height="411.30142pt"
   viewBox="0 0 286.11267 411.30142"
   preserveAspectRatio="xMidYMid"
   id="svg29"
   sodipodi:docname="logo.svg"
   inkscape:version="1.4.3 (0d15f75, 2025-12-25)"
   xmlns:inkscape="http://www.inkscape.org/namespaces/inkscape"
   xmlns:sodipodi="http://sodipodi.sourceforge.net/DTD/sodipodi-0.dtd"
   xmlns="http://www.w3.org/2000/svg"
   xmlns:svg="http://www.w3.org/2000/svg">
  <defs
     id="defs29" />
  <sodipodi:namedview
     id="namedview29"
     pagecolor="#ffffff"
     bordercolor="#000000"
     borderopacity="0.25"
     inkscape:showpageshadow="2"
     inkscape:pageopacity="0.0"
     inkscape:pagecheckerboard="0"
     inkscape:deskcolor="#d1d1d1"
     inkscape:document-units="pt"
     inkscape:zoom="0.55484133"
     inkscape:cx="81.104268"
     inkscape:cy="311.80085"
     inkscape:window-width="1470"
     inkscape:window-height="919"
     inkscape:window-x="0"
     inkscape:window-y="37"
     inkscape:window-maximized="0"
     inkscape:current-layer="svg29" />
  <g
     transform="matrix(0.1,0,0,-0.1,-156.5,558.80141)"
     fill="#000000"
     stroke="none"
     id="g29">
    <path
       d="m 4370,5564 c -7,-16 -16,-54 -22,-83 -7,-41 -22,-70 -55,-113 l -46,-58 -19,55 c -24,71 -65,165 -73,165 -10,0 7,-103 27,-164 17,-51 18,-69 9,-140 -11,-93 -4,-86 -171,-198 -99,-66 -246,-190 -207,-175 9,4 24,10 33,13 9,4 5,-5 -10,-21 -14,-15 -30,-24 -35,-20 -6,3 -8,0 -5,-8 7,-20 -13,-32 -31,-17 -9,8 -15,8 -20,0 -4,-6 -1,-9 6,-8 6,2 14,-3 17,-11 2,-8 0,-11 -6,-7 -5,3 -9,0 -8,-7 0,-6 -3,-13 -9,-14 -5,-1 -12,-10 -16,-20 -3,-10 -12,-18 -20,-18 -8,0 -13,-8 -11,-18 2,-9 -4,-20 -12,-23 -9,-3 -14,-10 -11,-14 3,-4 -2,-13 -10,-20 -8,-7 -15,-21 -15,-31 0,-11 -4,-19 -10,-19 -5,0 -7,-7 -4,-15 4,-8 1,-15 -6,-15 -6,0 -9,-4 -6,-9 3,-4 -3,-32 -14,-62 -23,-61 -25,-90 -9,-106 13,-13 36,-6 63,19 10,9 24,15 29,11 6,-3 7,-2 4,4 -5,9 48,47 66,48 4,0 12,7 17,15 5,8 12,11 17,7 10,-10 -23,-63 -37,-59 -7,1 -8,-3 -4,-9 5,-9 2,-10 -10,-6 -11,5 -15,3 -10,-5 5,-8 2,-9 -11,-4 -16,6 -16,4 -4,-10 12,-15 11,-16 -11,-9 -23,7 -24,7 -10,-10 8,-11 10,-16 3,-12 -6,4 -26,-6 -45,-23 -18,-17 -39,-28 -46,-25 -9,3 -10,0 -2,-15 9,-16 8,-18 -6,-13 -11,4 -15,3 -10,-5 3,-6 -2,-16 -13,-22 -16,-8 -22,-6 -31,7 -9,15 -10,14 -4,-6 5,-18 3,-22 -7,-15 -10,6 -10,3 1,-11 10,-13 11,-16 2,-11 -9,6 -12,3 -10,-10 2,-11 -1,-18 -7,-17 -6,1 -10,-58 -11,-159 -1,-143 -3,-162 -21,-186 -11,-15 -27,-27 -36,-27 -9,0 -19,-4 -24,-9 -4,-5 -3,-6 5,-2 6,4 12,4 12,-1 0,-12 -46,-53 -59,-53 -7,0 -10,-4 -6,-9 3,-6 -3,-14 -12,-20 -10,-6 -14,-11 -9,-11 5,0 -3,-9 -18,-21 -15,-12 -23,-26 -19,-32 4,-8 1,-7 -9,1 -13,10 -18,10 -24,1 -5,-8 -3,-9 6,-4 10,6 12,4 7,-9 -4,-10 -3,-15 3,-11 14,9 12,-9 -2,-23 -9,-9 -9,-12 0,-12 7,0 12,-5 12,-11 0,-5 -5,-7 -11,-3 -7,4 -6,-2 2,-17 18,-34 32,-46 48,-41 8,3 11,0 8,-5 -3,-5 0,-10 8,-10 10,0 12,4 5,12 -5,7 -6,16 -2,20 4,5 1,5 -7,0 -9,-5 -12,-4 -7,3 4,6 13,9 20,6 15,-6 12,-76 -4,-119 -5,-12 -4,-29 2,-39 7,-13 7,-17 0,-12 -6,3 -14,1 -18,-6 -4,-7 -3,-10 1,-5 5,4 17,-1 28,-10 10,-10 21,-17 24,-16 9,3 53,58 53,66 0,4 7,7 15,7 8,0 15,6 15,13 0,8 10,22 22,33 12,10 18,14 15,8 -4,-7 -1,-17 6,-22 10,-8 16,-5 27,11 12,20 12,21 -3,9 -14,-12 -16,-11 -14,6 1,13 7,19 19,17 10,-2 21,1 24,7 4,7 2,8 -4,4 -17,-10 -15,5 2,18 8,6 16,25 17,41 2,17 12,42 22,57 10,16 16,31 13,36 -2,4 5,14 17,21 18,11 20,11 10,0 -7,-7 -13,-20 -13,-29 0,-9 -8,-32 -19,-53 -10,-20 -15,-34 -10,-31 5,3 9,0 9,-5 0,-6 -5,-11 -11,-11 -7,0 0,-9 14,-21 24,-18 35,-19 114,-14 48,4 93,11 99,16 6,5 14,5 18,1 4,-4 14,2 22,12 8,11 14,15 14,10 0,-5 -14,-22 -32,-37 -33,-30 -30,-44 12,-52 13,-3 30,-11 38,-19 13,-13 11,-14 -19,-9 -19,3 -39,6 -46,7 -7,1 -16,6 -20,11 -4,4 -2,5 6,0 10,-6 12,-4 7,4 -5,7 -13,8 -19,4 -7,-4 -44,-8 -84,-8 -39,0 -69,-3 -67,-6 2,-3 -15,-14 -37,-24 -22,-10 -51,-31 -64,-46 -12,-15 -25,-25 -29,-22 -7,8 -37,-17 -31,-27 2,-4 -7,-18 -20,-30 -14,-13 -25,-29 -25,-36 0,-7 -5,-16 -12,-20 -6,-4 -8,-3 -4,4 3,6 3,13 -2,16 -4,2 -8,-4 -9,-15 -2,-21 -51,-89 -64,-89 -5,0 -9,-7 -9,-16 0,-9 -5,-12 -12,-8 -6,4 -8,3 -4,-4 7,-11 -12,-63 -27,-73 -5,-4 -4,-10 2,-13 7,-5 11,-44 11,-104 0,-148 16,-142 23,9 l 6,132 48,71 c 61,89 175,211 232,248 37,23 56,28 105,28 34,0 86,-7 116,-15 74,-20 109,-19 161,5 39,17 46,18 66,4 26,-17 31,-3 7,20 -18,18 -60,21 -99,6 -20,-8 -35,-6 -65,10 -22,11 -47,20 -57,20 -27,1 49,65 116,97 47,23 73,28 176,34 146,8 208,29 229,81 8,18 13,34 12,35 -1,1 -20,-6 -42,-17 -33,-17 -211,-44 -223,-34 -2,2 11,21 28,42 30,39 40,75 22,86 -5,3 -21,-11 -36,-32 -59,-79 -93,-105 -210,-164 -116,-59 -123,-61 -218,-67 -63,-4 -96,-3 -93,4 26,70 67,217 70,253 2,26 11,64 20,84 9,21 16,49 16,64 0,26 -1,25 -30,-14 -17,-23 -34,-42 -38,-42 -13,0 -68,62 -85,95 -10,18 -16,24 -17,13 0,-9 18,-50 40,-92 23,-44 40,-89 40,-108 0,-18 -20,-76 -45,-128 -25,-52 -45,-105 -45,-117 0,-13 -4,-23 -9,-23 -5,0 -46,-36 -91,-80 -78,-78 -81,-80 -76,-48 3,18 12,74 20,123 8,50 18,98 22,109 7,18 6,18 -18,2 -14,-9 -39,-36 -54,-58 l -29,-42 -3,39 c -5,63 5,83 92,173 46,48 88,97 95,109 6,13 11,71 11,141 0,185 5,196 155,325 69,59 125,112 125,117 0,13 64,50 87,50 11,0 42,20 69,45 27,25 59,48 72,51 12,4 22,10 22,15 0,14 -8,12 -101,-36 -49,-25 -91,-45 -94,-45 -3,0 1,13 10,30 8,16 15,49 15,73 0,30 7,53 21,71 11,14 16,26 10,26 -16,0 -48,-52 -61,-100 -17,-66 -52,-105 -130,-146 -39,-20 -83,-51 -99,-70 -16,-18 -31,-30 -34,-28 -7,7 55,188 83,244 12,25 61,87 109,139 66,72 114,113 206,174 178,118 172,112 214,218 22,56 55,117 81,149 53,68 70,107 70,162 0,24 4,59 10,77 12,43 4,54 -10,15 z m -125,-276 c 6,-4 2,-8 -7,-8 -10,0 -18,7 -18,17 0,9 3,12 8,7 4,-5 12,-12 17,-16 z m -100,-217 c -3,-6 -12,-11 -18,-11 -7,0 -21,-9 -30,-21 -10,-11 -21,-18 -25,-15 -3,4 3,13 14,20 10,8 28,21 39,29 21,16 31,15 20,-2 z m -118,-80 c -10,-4 -18,-11 -18,-16 1,-6 -2,-10 -6,-10 -7,0 -52,-26 -100,-58 -9,-5 -11,-3 -7,7 3,9 9,15 12,14 9,-3 89,48 97,62 3,5 14,10 23,9 15,0 15,-1 -1,-8 z m -167,-455 c 0,-3 -11,-17 -25,-32 -14,-15 -25,-24 -25,-19 0,4 10,18 23,31 23,24 27,27 27,20 z m -133,-651 c -6,-15 -47,-22 -47,-7 0,8 42,30 49,25 2,-1 1,-9 -2,-18 z m 419,-184 c -11,-17 32,-44 63,-39 17,2 32,0 34,-6 3,-8 -25,-12 -86,-12 -70,-1 -87,2 -73,10 11,6 28,21 39,34 21,22 33,30 23,13 z m 204,-31 c 0,-5 -2,-10 -4,-10 -3,0 -8,5 -11,10 -3,6 -1,10 4,10 6,0 11,-4 11,-10 z m -57,-7 c -7,-2 -21,-2 -30,0 -10,3 -4,5 12,5 17,0 24,-2 18,-5 z"
       stroke-width="1"
       id="path1" />
    <path
       d="m 4113,3653 c 9,-2 23,-2 30,0 6,3 -1,5 -18,5 -16,0 -22,-2 -12,-5 z"
       id="path2" />
    <path
       d="m 3636,5393 c -4,-54 -12,-117 -18,-140 -9,-37 -7,-49 10,-87 12,-24 30,-70 41,-102 11,-33 29,-77 41,-99 39,-75 21,-140 -74,-263 -31,-41 -56,-82 -56,-92 0,-32 -40,-189 -75,-295 -19,-55 -36,-129 -39,-165 -6,-66 -37,-139 -92,-219 l -25,-36 6,85 c 4,47 10,109 14,138 5,28 5,52 2,52 -9,0 -81,-115 -81,-128 0,-7 -4,-12 -10,-12 -5,0 -10,9 -10,21 0,23 -39,119 -49,119 -3,0 -14,-19 -23,-43 -12,-30 -21,-100 -29,-244 -7,-114 -16,-203 -22,-203 -5,0 -7,12 -4,27 3,14 0,132 -5,262 l -10,235 -38,75 -37,75 -17,-32 c -9,-18 -19,-32 -21,-32 -3,0 -16,23 -30,50 -28,54 -37,62 -33,28 3,-28 -11,-301 -18,-343 -5,-30 -4,-30 12,5 9,19 18,73 21,120 3,47 11,91 17,99 8,11 8,13 0,8 -8,-4 -11,1 -10,17 0,14 6,22 13,19 7,-3 10,-9 7,-14 -3,-5 -1,-8 5,-7 5,2 16,-6 24,-16 13,-18 14,-18 12,5 -4,44 19,39 43,-9 22,-43 25,-65 33,-252 10,-248 15,-310 28,-323 28,-28 47,48 57,223 3,63 7,126 8,140 1,23 12,39 27,40 4,0 9,-14 13,-31 3,-17 10,-28 16,-24 5,3 10,1 10,-5 0,-7 6,-8 19,-1 10,6 21,7 25,4 3,-3 7,1 7,10 2,29 4,35 10,41 5,6 4,-40 -5,-131 -2,-29 -1,-55 5,-58 5,-4 6,2 2,12 -6,15 -4,16 9,5 27,-22 42,-10 90,77 11,20 26,40 34,44 9,5 12,17 8,33 -4,14 -2,24 5,24 6,0 8,7 4,17 -4,11 -3,14 6,9 9,-6 10,0 6,21 -5,21 -4,24 4,13 14,-20 14,-5 0,19 -9,14 -8,31 6,77 11,32 23,62 28,65 5,4 7,11 4,16 -8,12 10,39 20,30 4,-5 1,-13 -7,-18 -13,-9 -13,-10 0,-6 15,4 17,20 5,48 -3,10 0,23 7,30 8,7 12,27 11,48 -3,30 -1,33 7,16 10,-19 10,-19 6,1 -6,36 15,138 26,123 7,-10 8,-8 4,7 -7,22 17,79 37,91 7,4 5,-2 -3,-13 -12,-17 -12,-17 0,-6 8,7 15,16 15,20 1,11 45,92 50,92 2,0 2,-8 -1,-17 -3,-11 -1,-11 5,2 20,43 27,65 30,93 0,7 6,10 13,6 7,-5 8,-3 3,7 -13,20 -15,58 -4,64 5,4 9,1 9,-6 0,-7 3,-10 6,-6 3,3 3,11 -1,17 -5,8 -11,8 -22,-1 -12,-11 -14,-10 -12,2 1,7 -5,30 -14,49 -17,39 -12,61 8,33 8,-10 9,-20 4,-24 -5,-3 2,-11 16,-19 14,-7 25,-18 25,-24 0,-6 9,0 20,14 l 20,25 -10,-29 c -14,-39 -19,-85 -10,-91 24,-15 51,159 50,315 -1,144 -17,264 -19,144 -2,-92 -20,-252 -35,-309 l -13,-50 -12,29 c -7,16 -26,46 -44,66 -18,20 -38,45 -45,56 -13,19 -13,19 -7,-1 3,-11 2,-16 -2,-11 -11,11 -14,50 -16,218 -1,80 -5,149 -8,152 -3,4 -9,-37 -13,-91 z m 84,-327 c 0,-11 -19,-15 -25,-6 -3,5 1,10 9,10 9,0 16,-2 16,-4 z m -491,-977 c -16,-10 -23,-4 -14,10 3,6 11,8 17,5 6,-4 5,-9 -3,-15 z"
       stroke-width="1"
       id="path3" />
    <path
       d="m 2184,5450 c 3,-14 6,-109 6,-212 0,-137 3,-188 12,-188 6,0 20,-8 31,-17 20,-17 20,-17 13,2 -5,11 -10,43 -12,70 -2,28 -6,61 -9,75 -3,14 -9,81 -14,148 -5,76 -14,128 -21,135 -10,10 -11,7 -6,-13 z"
       id="path4" />
    <path
       d="m 1885,5388 c -4,-32 -1,-80 8,-120 7,-38 12,-68 10,-68 -12,0 -124,78 -155,108 -21,20 -38,31 -38,25 0,-22 114,-134 219,-218 107,-84 301,-274 301,-295 0,-7 24,-46 54,-88 75,-108 73,-104 101,-276 28,-172 29,-188 16,-167 -6,9 -11,10 -15,2 -4,-6 -2,-11 4,-11 6,0 8,-5 4,-11 -4,-7 -9,-8 -17,0 -7,7 -6,15 2,25 16,20 -16,65 -81,112 -44,32 -54,50 -82,134 -2,8 -5,-13 -5,-48 -1,-35 -5,-61 -10,-58 -5,4 -47,13 -93,21 -106,20 -127,31 -149,80 -21,47 -26,20 -5,-30 19,-44 55,-66 124,-77 73,-11 168,-56 221,-103 55,-50 109,-160 122,-250 19,-138 31,-191 49,-222 20,-34 135,-181 218,-278 50,-58 52,-62 52,-120 0,-66 8,-105 21,-105 4,0 7,8 7,18 -1,9 2,28 6,41 5,13 4,21 0,18 -5,-3 -10,17 -11,43 -1,27 -9,59 -17,73 -9,13 -13,27 -9,32 5,4 3,5 -3,2 -18,-10 -40,21 -26,35 7,7 12,17 12,22 0,6 -5,3 -11,-6 -13,-23 -30,-23 -22,-1 4,11 3,14 -5,9 -8,-4 -12,0 -12,11 0,15 -2,16 -10,3 -7,-10 -10,-11 -11,-2 -4,33 -6,37 -16,35 -7,-2 -10,6 -8,17 2,12 0,18 -6,14 -12,-7 -41,15 -34,26 2,4 -4,15 -15,25 -10,9 -16,24 -13,33 3,12 2,13 -4,4 -7,-9 -14,-5 -29,15 -43,58 -57,99 -57,171 0,18 -4,28 -7,22 -4,-7 -10,16 -13,49 -5,61 -35,163 -49,169 -14,6 -8,29 11,46 12,11 18,29 17,49 -1,18 2,38 7,45 6,7 6,12 0,12 -13,0 -47,215 -37,231 5,8 3,10 -6,4 -10,-6 -12,-4 -7,9 4,10 3,15 -3,11 -6,-3 -10,1 -10,9 0,9 -4,16 -10,16 -5,0 -10,12 -10,26 0,17 -4,23 -12,18 -8,-5 -9,-2 -4,12 4,10 4,15 0,11 -4,-4 -15,0 -25,9 -13,12 -16,21 -9,34 5,10 6,21 2,26 -4,5 3,0 16,-10 13,-12 20,-26 17,-35 -3,-8 -3,-12 1,-8 10,10 46,-52 38,-66 -4,-7 -3,-9 1,-4 5,4 19,-3 32,-15 19,-17 26,-19 36,-9 9,10 8,11 -8,6 -16,-6 -17,-5 -5,4 8,5 18,7 22,3 3,-4 8,-66 10,-138 1,-73 5,-131 8,-129 3,2 6,-27 8,-64 2,-43 -1,-61 -7,-52 -7,10 -9,7 -8,-12 2,-20 5,-23 15,-14 11,8 13,-1 13,-49 0,-32 0,-74 0,-92 0,-18 4,-30 8,-28 4,3 13,-12 20,-32 14,-38 72,-117 103,-140 10,-7 18,-20 18,-28 0,-8 3,-13 8,-12 12,2 42,-14 38,-21 -3,-4 7,-8 22,-9 14,-1 29,3 33,9 9,15 1,177 -11,212 -5,16 -5,25 0,22 5,-3 12,-1 15,5 4,6 1,9 -6,8 -6,-2 -12,9 -13,25 -1,21 1,25 9,15 6,-7 21,-22 33,-32 19,-17 22,-17 16,-3 -3,9 -2,17 2,17 5,0 10,10 10,23 1,12 7,59 15,105 9,58 17,81 26,78 7,-3 15,0 19,6 4,6 3,8 -4,4 -13,-8 -26,10 -17,25 5,7 13,5 24,-5 10,-9 20,-14 23,-11 3,3 8,-50 12,-117 8,-150 16,-202 28,-190 10,10 -12,422 -23,422 -3,0 -10,-24 -15,-52 l -9,-53 -25,42 c -28,49 -40,54 -40,18 0,-13 -9,-81 -20,-150 -12,-69 -18,-130 -15,-135 3,-6 2,-10 -3,-10 -6,0 -12,10 -16,23 -3,12 -22,38 -42,57 -23,21 -35,28 -31,17 10,-27 47,-358 42,-365 -7,-9 -155,149 -172,183 -28,54 -31,72 -48,285 -26,308 -28,343 -16,405 11,64 13,65 130,164 77,64 80,76 43,163 -16,40 -33,82 -36,92 -4,10 -9,16 -13,12 -4,-3 4,-39 17,-80 l 23,-74 -22,-36 c -24,-39 -103,-112 -138,-129 -27,-12 -51,-61 -59,-120 -4,-27 -11,-44 -20,-44 -7,0 -11,4 -8,9 3,5 -10,32 -28,61 -64,97 -80,128 -103,193 -19,54 -56,104 -78,104 -5,0 10,-88 18,-101 22,-34 -67,31 -200,146 -60,53 -61,53 -84,151 -14,55 -25,123 -25,151 -1,68 -13,68 -21,1 z m 41,-236 c -10,-10 -29,15 -21,28 6,9 10,8 17,-4 6,-10 7,-20 4,-24 z m 322,-256 c -11,-20 -10,-20 8,-6 10,8 16,10 12,6 -4,-5 2,-22 14,-39 13,-19 16,-28 7,-23 -7,4 -6,1 4,-7 12,-10 14,-17 7,-22 -5,-3 -8,-10 -5,-15 3,-5 1,-11 -4,-14 -5,-3 -21,19 -36,49 -16,30 -33,55 -38,55 -5,0 -7,7 -4,14 4,11 1,13 -11,9 -13,-4 -12,-2 3,10 11,8 23,13 27,11 4,-3 5,3 2,13 -5,17 -4,16 10,-1 12,-15 13,-23 4,-40 z m 52,-524 c 38,-21 73,-69 58,-78 -7,-4 -10,-3 -5,1 9,10 -51,75 -69,75 -7,0 -17,8 -23,17 -5,10 -13,15 -16,11 -11,-11 -33,15 -27,31 4,10 12,7 32,-15 14,-16 37,-35 50,-42 z"
       stroke-width="1"
       id="path5" />
    <path
       d="m 3769,4453 c -13,-16 -12,-17 4,-4 16,13 21,21 13,21 -2,0 -10,-8 -17,-17 z"
       id="path6" />
    <path
       d="m 3399,3673 c -13,-16 -12,-17 4,-4 16,13 21,21 13,21 -2,0 -10,-8 -17,-17 z"
       id="path7" />
    <path
       d="m 2410,3590 c 0,-14 9,-44 20,-67 10,-24 16,-43 12,-43 -4,0 -32,18 -62,40 -70,51 -116,72 -141,65 -10,-3 -38,-22 -61,-42 -97,-81 -154,-84 -261,-12 -97,64 -127,69 -204,35 -65,-30 -86,-33 -123,-21 l -25,7 24,-25 c 33,-36 68,-41 116,-17 21,11 46,20 55,20 8,0 52,-25 98,-57 62,-42 81,-61 76,-72 -25,-59 -9,-85 58,-96 86,-15 88,-20 19,-85 -55,-53 -61,-63 -60,-97 l 1,-38 9,31 c 11,38 68,91 107,100 48,10 52,13 52,33 0,28 -31,61 -81,85 -54,26 -59,50 -9,52 42,2 75,14 129,49 22,14 47,25 54,25 7,0 31,-18 52,-41 25,-25 85,-63 157,-100 139,-71 251,-143 295,-190 25,-27 32,-44 35,-86 l 3,-52 -22,21 c -21,20 -122,53 -131,43 -3,-3 2,-13 12,-23 53,-59 101,-256 117,-479 14,-187 15,-185 -73,-229 -64,-32 -138,-32 -201,0 l -47,23 v -22 c 0,-12 9,-34 20,-48 l 20,-25 -49,-12 c -57,-13 -122,-64 -141,-110 -12,-29 -10,-97 5,-131 5,-15 -4,-17 -72,-20 -62,-3 -85,-9 -110,-27 -36,-25 -112,-54 -218,-82 -67,-17 -69,-19 -42,-29 48,-19 120,-12 223,20 89,27 107,30 179,24 106,-8 272,10 361,41 80,27 112,30 138,11 18,-13 18,-15 0,-50 -25,-47 -71,-80 -158,-113 -74,-28 -139,-79 -178,-142 -23,-38 -40,-102 -27,-102 5,0 9,5 9,10 0,15 76,82 122,107 24,14 58,23 83,23 89,0 138,24 215,107 39,42 82,95 96,118 33,57 72,73 113,49 53,-31 64,-99 32,-184 -17,-45 -18,-50 -3,-50 10,0 30,9 46,20 l 30,19 33,-34 c 52,-53 114,-92 186,-115 81,-26 127,-56 147,-95 l 15,-30 3,33 c 6,55 -26,101 -111,162 -111,79 -131,111 -136,216 -5,123 30,163 101,116 47,-31 73,-72 73,-119 0,-24 4,-43 8,-43 33,0 77,57 77,100 0,11 5,20 11,20 6,0 62,-27 126,-60 129,-68 162,-73 253,-39 49,18 76,25 103,28 4,1 -4,12 -19,24 -20,18 -25,29 -20,43 7,18 8,18 18,-1 6,-11 12,-21 14,-23 1,-2 14,4 28,13 26,17 27,17 59,-17 18,-19 45,-38 60,-42 47,-12 98,-66 112,-121 13,-49 13,-49 21,-20 16,65 -46,217 -96,233 -11,4 -10,-1 4,-17 18,-20 18,-22 1,-41 -10,-11 -25,-20 -35,-20 -21,0 -95,76 -81,84 5,4 26,-10 45,-31 27,-29 37,-35 47,-26 7,7 9,19 4,30 -5,10 -7,22 -6,26 1,5 -3,6 -7,3 -11,-7 -48,32 -39,40 4,4 12,2 19,-3 7,-6 28,-8 46,-6 26,4 30,8 21,19 -13,16 -39,19 -39,4 0,-5 -5,-10 -10,-10 -6,0 -9,6 -8,13 2,9 -33,13 -145,15 -134,2 -148,4 -143,19 4,9 4,36 0,59 -5,38 -8,42 -21,28 -18,-17 -93,-57 -99,-52 -2,3 1,18 8,34 15,41 3,97 -29,135 -35,41 -60,49 -116,36 -60,-13 -114,2 -162,47 l -35,33 v 105 c 0,158 47,390 102,503 l 19,40 -29,-34 c -16,-18 -46,-66 -68,-107 -33,-62 -37,-75 -25,-86 9,-8 11,-8 7,-1 -3,6 -2,14 3,18 10,6 9,-2 -9,-70 -15,-53 -19,-87 -26,-233 -5,-95 -3,-126 7,-139 10,-12 10,-15 2,-9 -7,4 -13,5 -13,1 0,-3 11,-10 25,-15 14,-5 25,-14 25,-20 0,-7 -5,-8 -12,-3 -23,13 -36,11 -33,-6 2,-9 4,-18 4,-20 1,-3 6,0 13,7 8,8 17,8 31,1 15,-9 18,-8 12,3 -5,7 9,-3 31,-22 21,-19 32,-26 24,-16 -14,18 -14,19 7,8 27,-15 111,-24 118,-13 2,5 16,8 30,9 13,0 22,-4 19,-9 -3,-5 1,-9 8,-10 7,0 2,-4 -10,-10 -13,-5 -28,-7 -33,-3 -5,3 -9,1 -9,-5 0,-6 -16,-13 -35,-17 -19,-3 -33,-10 -30,-14 2,-4 -7,-6 -20,-4 -14,1 -25,-2 -25,-8 0,-6 -7,-5 -16,2 -12,11 -15,11 -12,-1 2,-9 -4,-13 -17,-12 -18,1 -19,1 -3,-11 14,-10 15,-15 5,-26 -9,-10 -9,-11 0,-6 14,8 70,-42 65,-58 -2,-5 5,-3 14,5 15,12 17,12 9,0 -6,-11 -4,-13 8,-8 10,4 17,2 17,-4 0,-6 9,-9 20,-6 11,3 18,2 15,-3 -6,-9 81,-7 91,3 10,9 27,9 20,-1 -7,-12 43,-7 56,6 7,7 18,12 26,12 7,0 10,4 7,10 -3,6 1,7 9,4 12,-5 13,-10 5,-25 -8,-16 -4,-25 22,-52 21,-21 34,-28 37,-19 3,10 7,10 18,1 8,-6 14,-7 14,-2 0,5 40,10 89,10 73,0 88,-3 87,-15 -2,-9 -11,-17 -21,-18 -10,-1 -22,-9 -26,-16 -5,-7 -9,-8 -9,-3 0,6 -4,4 -9,-4 -10,-15 -41,-24 -41,-12 0,4 6,13 13,20 6,7 -4,3 -24,-8 -22,-13 -39,-31 -41,-46 -3,-13 -1,-22 3,-19 5,3 6,-2 2,-11 -4,-13 -14,-15 -37,-11 -18,3 -26,2 -18,-2 8,-6 -6,-13 -42,-22 -45,-10 -58,-11 -71,0 -8,7 -12,17 -8,23 3,6 1,7 -6,3 -6,-4 -8,-12 -5,-18 4,-6 1,-9 -7,-6 -8,3 -14,10 -14,15 0,6 -4,15 -9,20 -5,5 -6,3 -2,-4 10,-18 -10,-16 -28,3 -9,8 -16,13 -16,9 0,-3 -18,4 -40,16 -22,13 -40,27 -40,32 0,5 -9,7 -19,4 -13,-3 -18,0 -15,8 4,9 -3,11 -22,7 -17,-3 -25,-1 -20,6 4,6 -2,8 -15,5 -16,-4 -17,-8 -7,-14 10,-7 10,-9 1,-9 -7,0 -13,-7 -13,-16 0,-11 -5,-14 -16,-10 -13,5 -14,3 -7,-6 12,-16 11,-41 -1,-48 -6,-3 -11,7 -11,23 -1,15 -6,31 -10,35 -5,4 -5,-2 -1,-13 11,-31 -8,-4 -22,30 -11,26 -11,28 2,12 13,-17 14,-17 20,0 4,10 4,14 0,10 -4,-4 -13,-2 -21,4 -7,6 -13,9 -13,6 0,-4 -16,5 -36,18 -46,31 -80,32 -112,3 -14,-13 -22,-17 -17,-9 6,10 4,12 -4,6 -7,-4 -11,-16 -8,-26 3,-11 1,-16 -5,-13 -6,4 -8,-2 -3,-16 4,-13 3,-20 -2,-17 -15,10 -5,-102 12,-126 19,-28 19,-48 0,-23 -8,11 -15,15 -15,9 0,-5 11,-22 24,-36 14,-15 36,-42 51,-61 14,-19 37,-37 50,-40 14,-4 25,-11 25,-16 0,-6 5,-10 11,-10 6,0 27,-13 46,-30 22,-19 28,-30 18,-30 -9,0 -18,6 -21,13 -3,8 -10,14 -17,15 -30,2 -73,14 -82,23 -5,5 -16,9 -25,9 -22,0 -111,65 -102,75 4,5 2,6 -3,2 -6,-3 -17,-2 -25,3 -11,7 -11,11 -1,24 11,13 10,15 -9,11 -12,-2 -23,2 -26,9 -3,8 -14,12 -25,9 -10,-3 -17,-9 -14,-12 2,-4 -2,-8 -9,-8 -10,0 -12,8 -6,27 15,54 -12,170 -41,170 -6,0 -7,4 -4,10 4,6 -1,7 -11,3 -13,-5 -15,-3 -9,7 6,10 4,12 -9,7 -14,-6 -17,-3 -12,10 6,16 5,15 -13,-1 -14,-13 -21,-14 -27,-5 -5,8 -3,10 6,4 9,-5 11,-4 6,3 -9,15 -11,15 -27,-5 -12,-15 -12,-16 1,-8 9,5 12,4 7,-1 -5,-5 -14,-9 -20,-9 -7,0 -13,-4 -14,-9 -1,-5 -5,-12 -10,-15 -5,-3 -26,-32 -47,-63 -20,-31 -46,-60 -57,-63 -10,-4 -19,-11 -19,-16 0,-6 6,-7 13,-3 8,6 8,3 -1,-9 -8,-9 -17,-15 -22,-14 -4,1 -16,-9 -27,-21 -10,-13 -31,-25 -45,-25 -21,-2 -24,-5 -15,-16 10,-12 9,-12 -12,-2 -13,7 -21,9 -17,3 7,-11 -56,-23 -96,-18 -16,2 -28,0 -28,-5 0,-5 -6,-6 -13,-3 -7,2 -26,-9 -41,-25 -31,-32 -59,-32 -30,0 9,10 19,17 23,15 8,-5 32,21 29,31 -2,3 8,10 22,13 14,4 45,17 69,28 24,12 48,19 54,15 6,-3 7,-1 4,4 -4,6 7,16 23,23 17,7 30,17 30,22 0,5 4,7 10,3 5,-3 7,-13 4,-23 -5,-14 -4,-14 4,-3 6,8 8,20 5,27 -2,6 1,15 8,20 8,5 10,3 4,-6 -5,-8 -4,-11 3,-6 17,10 25,-13 11,-32 -12,-16 -12,-16 6,0 18,17 18,18 -1,39 -13,15 -15,23 -7,26 7,2 9,11 6,20 -4,10 -2,14 4,10 6,-4 13,2 16,13 3,11 1,23 -5,26 -5,3 -7,12 -4,20 3,9 0,11 -11,7 -10,-4 -14,-2 -10,4 3,5 1,10 -6,11 -7,1 -29,5 -49,8 -24,4 -48,1 -69,-10 -17,-9 -36,-13 -42,-9 -5,3 -7,1 -3,-5 7,-12 -57,-26 -169,-38 -87,-9 -114,-9 -190,-1 -49,6 -72,3 -127,-16 -38,-13 -68,-23 -68,-22 0,1 23,16 51,33 27,18 47,27 43,21 -4,-7 7,-2 23,11 26,19 40,21 87,17 32,-3 53,-1 50,4 -3,5 2,9 11,9 9,0 13,5 10,10 -9,14 1,12 17,-4 12,-11 26,-10 94,11 43,13 84,25 91,26 7,2 16,6 19,10 4,4 14,7 21,7 8,0 29,11 47,25 18,14 36,25 39,25 3,0 28,21 54,48 31,30 48,56 49,72 1,22 -3,26 -32,25 -17,0 -30,-4 -27,-9 3,-5 -7,-6 -23,-3 -16,3 -41,-1 -56,-9 -15,-8 -35,-11 -44,-7 -11,4 -15,3 -10,-5 4,-7 -3,-11 -21,-11 -57,-1 -123,-13 -123,-24 0,-6 -3,-7 -7,-4 -3,4 -15,-1 -26,-10 -11,-10 -17,-12 -13,-5 7,11 4,12 -13,3 -29,-16 -27,2 4,35 20,21 28,25 37,16 9,-9 9,-12 -2,-12 -7,0 -11,-3 -7,-6 3,-3 11,-3 17,1 8,5 7,11 -2,23 -11,13 -10,15 10,10 12,-4 20,-2 16,3 -3,5 6,9 19,9 13,0 34,12 48,27 13,14 18,23 12,19 -8,-4 -13,-1 -13,9 0,10 -5,13 -12,9 -7,-5 -8,-3 -3,5 5,9 10,10 18,2 6,-6 31,-11 56,-12 38,-1 42,-2 21,-9 -14,-4 -19,-8 -12,-9 19,-1 125,29 138,40 6,5 14,6 18,2 3,-4 12,2 20,12 7,10 17,15 23,12 6,-4 19,0 29,9 18,14 18,15 -3,4 -30,-14 -29,-5 4,38 15,20 21,32 15,28 -8,-5 -11,15 -9,74 1,44 0,80 -3,80 -4,0 -7,30 -7,68 -1,37 -13,117 -27,177 -19,85 -22,113 -13,125 11,13 10,13 -7,0 -18,-14 -19,-13 -14,8 4,12 3,20 -1,18 -4,-3 -12,4 -19,14 -8,14 -8,21 -1,26 8,4 7,9 -2,15 -9,6 -10,9 -2,9 6,0 18,-6 25,-12 7,-7 20,-14 28,-16 8,-2 22,-10 32,-18 12,-12 18,-12 24,-3 4,8 3,10 -4,5 -8,-5 -11,0 -9,15 2,13 10,25 17,27 7,3 10,0 7,-6 -4,-5 1,-16 11,-23 15,-12 16,-12 6,1 -6,8 -10,23 -9,32 2,10 -2,15 -9,12 -9,-3 -12,6 -9,33 2,33 -2,42 -32,67 -19,16 -35,35 -35,41 0,6 -16,19 -35,28 -33,16 -40,27 -35,52 1,5 -2,7 -6,3 -4,-4 -14,-2 -23,4 -9,7 -7,2 4,-11 l 20,-24 -24,14 c -13,8 -32,19 -43,25 -10,6 -31,22 -45,35 -14,13 -23,18 -18,10 5,-9 3,-12 -6,-9 -8,3 -14,10 -14,16 0,5 -4,14 -9,19 -5,5 -6,3 -2,-4 4,-7 2,-13 -3,-13 -6,0 -11,5 -11,11 0,6 -7,8 -16,5 -10,-4 -13,-2 -8,6 5,7 2,9 -9,5 -11,-4 -18,1 -23,15 -4,15 -8,17 -14,8 -6,-9 -10,-8 -19,6 -6,11 -11,13 -11,6 0,-9 -4,-10 -19,0 -11,6 -18,20 -16,29 2,11 -1,16 -9,13 -7,-3 -25,7 -40,21 -15,14 -32,25 -37,25 -6,0 -8,4 -4,9 3,6 -6,6 -24,1 -16,-4 -32,-6 -35,-2 -3,3 -6,0 -6,-5 0,-6 -11,-10 -25,-8 -20,2 -23,0 -14,-11 13,-15 14,-15 -58,-19 -53,-2 -56,12 -5,21 35,6 93,39 100,56 2,4 8,8 13,8 6,0 7,-6 3,-12 -4,-7 2,-5 14,6 19,16 24,17 39,5 16,-12 17,-12 6,2 -7,9 -9,20 -5,24 4,5 -6,1 -23,-9 -27,-17 -28,-17 -13,-1 30,33 74,28 133,-13 30,-20 54,-42 55,-49 0,-7 7,-10 15,-7 8,4 22,1 30,-6 12,-10 15,-10 15,0 0,6 6,10 13,7 6,-2 11,-10 9,-16 -1,-7 2,-10 8,-6 7,4 7,12 2,18 -12,17 -13,59 -1,51 6,-3 8,-12 5,-20 -3,-7 0,-16 6,-20 7,-4 8,-3 4,4 -4,7 -2,12 3,12 6,0 11,-5 11,-12 0,-6 3,-9 6,-6 3,3 21,-10 40,-28 19,-20 39,-32 46,-28 7,5 8,3 3,-6 -6,-10 -4,-12 9,-7 11,4 15,3 10,-4 -3,-6 -15,-9 -25,-6 -11,3 -16,1 -13,-5 3,-5 19,-6 34,-3 16,4 31,2 35,-5 6,-10 78,-50 90,-50 20,0 -8,24 -88,77 -51,33 -127,94 -170,134 -69,66 -77,71 -77,49 z m -564,-56 c -3,-8 0,-16 6,-20 6,-4 8,-3 4,4 -3,6 -1,14 5,17 17,11 23,-3 8,-22 -13,-16 -12,-17 3,-5 18,14 43,7 33,-9 -3,-5 0,-6 8,-3 8,3 20,-2 27,-10 7,-9 17,-13 23,-9 5,3 7,1 3,-5 -3,-6 6,-13 23,-17 16,-3 32,-13 35,-20 3,-9 16,-13 37,-10 17,2 28,1 25,-2 -12,-13 -86,-12 -80,0 3,7 -3,1 -14,-12 -13,-16 -19,-36 -16,-53 1,-15 -2,-28 -7,-28 -6,0 -7,5 -3,12 5,8 2,9 -9,5 -14,-5 -15,-2 -6,20 5,14 7,28 4,31 -2,3 1,12 7,21 7,9 9,13 4,9 -5,-4 -15,-1 -22,7 -17,17 -18,29 -2,19 7,-4 8,-3 4,4 -4,6 -12,9 -19,6 -7,-2 -24,6 -37,18 -14,13 -25,21 -25,18 0,-3 -13,5 -27,16 -15,12 -24,25 -20,29 4,4 0,6 -8,5 -8,-1 -28,-1 -45,0 l -30,3 35,6 c 40,8 83,-7 76,-25 z M 3695,2216 c 11,-25 12,-42 4,-70 -9,-33 -13,-36 -47,-36 -43,0 -129,38 -156,69 l -19,21 34,1 c 19,0 61,11 94,24 33,13 64,24 68,24 4,1 14,-14 22,-33 z m -1001,-31 c -24,-36 -102,-91 -186,-129 -77,-36 -183,-68 -192,-58 -15,14 -5,80 15,101 29,30 56,40 185,62 61,10 128,25 150,33 21,8 40,15 42,15 1,1 -5,-10 -14,-24 z m -377,-68 c -1,-5 -6,-8 -11,-7 -5,1 -13,-4 -17,-12 -6,-9 -9,-7 -9,9 0,16 6,21 20,20 11,-1 19,-5 17,-10 z m -36,-60 c -10,-9 -11,-8 -5,6 3,10 9,15 12,12 3,-3 0,-11 -7,-18 z m 1930,-173 c 23,-25 23,-26 2,-13 -13,7 -25,19 -27,26 -8,19 -2,16 25,-13 z m -2214,-6 c 0,-7 -12,-14 -26,-15 l -26,-1 25,14 c 14,7 25,13 26,14 0,0 1,-6 1,-12 z"
       stroke-width="1"
       id="path8" />
    <path
       d="m 2270,3476 c 0,-2 8,-10 18,-17 15,-13 16,-12 3,4 -13,16 -21,21 -21,13 z"
       id="path9" />
    <path
       d="m 3145,3261 c 4,-23 -32,-74 -46,-65 -5,3 -6,-3 -2,-12 4,-11 2,-15 -4,-11 -15,10 -26,-23 -12,-39 6,-7 8,-18 5,-23 -4,-5 -2,-12 4,-16 6,-4 8,-10 5,-15 -11,-17 30,-21 42,-4 7,10 13,13 13,7 0,-7 -5,-15 -10,-18 -6,-4 -8,-10 -5,-15 3,-5 1,-11 -5,-15 -6,-4 -8,-10 -5,-15 3,-5 1,-11 -5,-15 -12,-8 -13,-35 -1,-35 5,0 13,12 19,28 5,15 32,63 61,106 28,43 51,89 51,102 0,43 18,25 29,-28 18,-81 3,-110 -80,-164 -38,-24 -69,-48 -69,-54 0,-14 4,-13 44,11 l 35,20 -4,-21 c -3,-18 -2,-20 10,-10 8,6 12,17 9,23 -2,7 9,20 25,30 16,10 33,26 36,37 4,11 10,18 15,15 26,-16 9,135 -20,169 -9,12 -16,13 -31,3 -10,-6 -19,-19 -19,-28 0,-9 -8,-27 -19,-40 -10,-13 -24,-36 -32,-51 -11,-21 -18,-25 -29,-18 -10,7 -11,10 -2,10 6,0 12,5 12,11 0,7 8,18 18,25 12,10 13,13 3,14 -12,0 -12,3 1,18 33,37 26,62 -17,66 -5,1 -10,6 -10,13 0,6 -3,15 -7,19 -4,3 -5,-3 -3,-15 z m 15,-88 c -16,-32 -33,-67 -37,-78 -6,-16 -8,-11 -11,19 -3,34 2,44 34,77 21,22 39,39 41,39 1,0 -11,-26 -27,-57 z"
       stroke-width="1"
       id="path10" />
    <path
       d="m 2907,3252 c -10,-10 -17,-23 -17,-28 0,-5 5,-2 10,6 7,12 9,11 9,-5 1,-39 4,-55 12,-55 12,0 40,-56 32,-64 -7,-7 -33,13 -33,26 0,5 6,6 13,3 6,-4 1,2 -12,13 -13,11 -21,24 -17,31 4,6 2,11 -4,11 -6,0 -8,5 -5,10 3,6 1,10 -4,10 -6,0 -11,7 -11,16 0,8 -4,12 -10,9 -21,-13 -8,-55 44,-136 30,-46 57,-95 61,-109 7,-24 7,-24 -11,-9 -11,9 -41,28 -67,43 -65,37 -83,78 -66,150 6,28 17,54 23,58 13,9 1,22 -13,14 -24,-15 -42,-75 -39,-129 2,-30 7,-52 12,-49 5,3 7,-5 4,-16 -4,-12 -2,-20 3,-16 5,3 9,-1 9,-8 0,-10 2,-10 9,1 6,9 11,10 15,2 4,-6 4,-16 0,-23 -4,-7 -3,-8 5,-4 17,11 44,-13 31,-29 -7,-8 -5,-12 5,-12 8,0 12,4 9,9 -7,12 -1,10 36,-8 31,-16 34,-16 45,-1 7,9 16,13 21,9 5,-4 1,2 -9,14 -9,11 -14,23 -11,27 9,8 -18,67 -28,61 -4,-3 -5,2 -1,11 5,13 7,14 14,3 6,-9 9,-6 9,11 0,13 -14,49 -31,80 -29,51 -29,54 -8,36 13,-11 31,-29 41,-40 20,-23 24,-91 6,-98 -7,-2 -10,-8 -5,-12 17,-19 46,32 44,78 0,25 -4,44 -8,41 -11,-7 -70,56 -63,68 4,6 -2,6 -14,-1 -30,-16 -40,-13 -18,4 11,8 15,15 9,15 -5,0 -17,-8 -26,-18 z"
       stroke-width="1"
       id="path11" />
    <path
       d="m 3200,3185 c -7,-9 -8,-15 -2,-15 5,0 12,7 16,15 3,8 4,15 2,15 -2,0 -9,-7 -16,-15 z"
       id="path12" />
    <path
       d="m 3046,3177 c 3,-10 9,-15 12,-12 3,3 0,11 -7,18 -10,9 -11,8 -5,-6 z"
       id="path13" />
    <path
       d="m 3243,2975 c 0,-8 4,-12 9,-9 5,3 6,10 3,15 -9,13 -12,11 -12,-6 z"
       id="path14" />
    <path
       d="m 2716,2972 c -3,-5 1,-9 9,-9 8,0 12,4 9,9 -3,4 -7,8 -9,8 -2,0 -6,-4 -9,-8 z"
       id="path15" />
    <path
       d="m 3230,2915 c -6,-8 -9,-23 -5,-35 4,-12 2,-20 -5,-20 -7,0 -10,-7 -6,-15 4,-12 1,-12 -21,2 -26,17 -26,17 -14,-4 6,-12 11,-33 11,-48 0,-39 18,-21 50,49 l 28,61 4,-80 c 11,-196 -8,-470 -39,-570 -5,-17 -4,-18 10,-7 36,30 56,190 54,434 -2,176 -4,199 -20,215 -17,17 -19,17 -33,-1 -10,-15 -14,-16 -14,-5 0,8 5,20 12,27 7,7 9,12 6,12 -3,0 -11,-7 -18,-15 z"
       id="path16" />
    <path
       d="m 2826,2881 c -9,-16 -13,-37 -10,-45 3,-9 2,-16 -2,-16 -5,0 -9,-37 -8,-83 1,-148 9,-335 14,-332 5,3 12,-47 14,-107 0,-20 5,-34 9,-31 5,3 14,-3 21,-13 9,-12 15,-14 20,-5 6,9 12,9 24,-1 14,-10 15,-10 5,2 -15,16 -17,34 -4,25 5,-3 13,0 17,6 4,7 3,9 -4,5 -7,-4 -10,1 -9,14 1,19 1,19 23,-1 22,-21 33,-15 47,24 4,11 12,15 19,11 8,-5 7,0 -2,11 -14,17 -13,17 8,11 14,-5 29,-3 38,5 13,11 20,8 40,-17 14,-16 23,-24 20,-19 -2,6 -1,17 5,25 9,15 11,5 12,-58 1,-23 2,-23 15,-5 14,19 12,58 -8,108 l -12,30 -12,-30 c -7,-16 -11,-37 -9,-45 2,-8 -1,-6 -6,5 -5,11 -15,42 -22,68 -6,26 -13,46 -15,44 -2,-2 -10,-28 -18,-58 l -14,-54 -15,35 -15,34 -16,-38 c -9,-21 -16,-50 -16,-65 -1,-25 -1,-25 -15,-7 -8,11 -15,30 -15,43 0,13 -4,23 -9,23 -11,0 -33,-64 -33,-96 0,-13 -4,-24 -9,-24 -5,0 -9,4 -9,10 0,5 -6,49 -14,97 -21,130 -28,262 -20,406 l 7,128 36,-73 c 31,-63 36,-69 39,-46 2,15 -5,40 -15,55 -10,15 -23,37 -29,47 -16,31 -32,30 -48,-3 z"
       id="path17" />
    <path
       d="m 2923,2867 c -4,-6 -1,-7 7,-2 8,5 11,3 8,-6 -3,-8 -13,-12 -23,-11 -17,3 -17,1 3,-20 11,-12 33,-38 47,-55 33,-40 44,-42 37,-5 l -5,27 30,-28 30,-28 21,25 c 25,33 36,33 30,1 -3,-14 -2,-25 2,-25 10,0 70,68 70,79 0,20 -14,17 -35,-7 -19,-22 -26,-25 -37,-14 -10,10 -15,9 -28,-8 -16,-21 -16,-21 -40,-2 -16,13 -30,17 -40,12 -20,-10 -55,14 -44,31 4,8 3,10 -4,5 -7,-4 -12,-3 -12,3 0,5 5,13 10,16 6,3 10,10 10,14 0,11 -30,9 -37,-2 z"
       id="path18" />
    <path
       d="m 3136,2833 c -6,-14 -5,-15 5,-6 7,7 10,15 7,18 -3,3 -9,-2 -12,-12 z"
       id="path19" />
    <path
       d="m 3175,2338 c -10,-24 -19,-47 -19,-53 -1,-5 -5,-17 -10,-25 -4,-8 7,1 25,20 24,25 31,29 27,14 -3,-11 1,-25 7,-31 22,-20 26,25 6,74 l -17,45 z"
       id="path20" />
    <path
       d="m 3510,2260 c -9,-6 -10,-10 -3,-10 6,0 15,5 18,10 8,12 4,12 -15,0 z"
       id="path21" />
    <path
       d="m 3176,2252 c -3,-5 1,-9 9,-9 8,0 12,4 9,9 -3,4 -7,8 -9,8 -2,0 -6,-4 -9,-8 z"
       id="path22" />
    <path
       d="m 3256,2045 c -11,-8 -18,-17 -15,-19 2,-2 15,4 28,15 27,22 15,26 -13,4 z"
       id="path23" />
    <path
       d="m 3213,2035 c 0,-8 4,-12 9,-9 5,3 6,10 3,15 -9,13 -12,11 -12,-6 z"
       id="path24" />
    <path
       d="m 2826,1882 -19,-27 24,22 c 12,12 21,24 18,27 -2,2 -13,-8 -23,-22 z"
       id="path25" />
    <path
       d="m 2770,1826 c 4,-4 16,-4 26,2 16,9 14,10 -8,9 -15,-1 -23,-6 -18,-11 z"
       id="path26" />
    <path
       d="m 2660,1780 c -9,-6 -10,-10 -3,-10 6,0 15,5 18,10 8,12 4,12 -15,0 z"
       id="path27" />
    <path
       d="m 2690,1756 c 0,-2 7,-7 16,-10 8,-3 12,-2 9,4 -6,10 -25,14 -25,6 z"
       id="path28" />
    <path
       d="m 2439,1653 c -13,-16 -12,-17 4,-4 9,7 17,15 17,17 0,8 -8,3 -21,-13 z"
       id="path29" />
  </g>
</svg>
